<?xml version="1.0" standalone="no"?>
<!DOCTYPE svg PUBLIC "-//W3C//DTD SVG 20010904//EN"
 "http://www.w3.org/TR/2001/REC-SVG-20010904/DTD/svg10.dtd">
<svg version="1.0" xmlns="http://www.w3.org/2000/svg"
 width="1255.000000pt" height="1280.000000pt" viewBox="0 0 1255.000000 1280.000000"
 preserveAspectRatio="xMidYMid meet">
<metadata>
Created by potrace 1.15, written by Peter Selinger 2001-2017
</metadata>
<g transform="translate(0.000000,1280.000000) scale(0.100000,-0.100000)"
fill="#000000" stroke="none">
<path d="M9646 12677 l-240 -122 -78 -225 c-44 -124 -83 -229 -88 -234 -5 -5
-156 44 -351 113 -188 67 -343 120 -344 119 -2 -2 7 -47 19 -102 l22 -99 295
-103 c161 -58 300 -106 307 -109 8 -3 -17 -39 -67 -97 -44 -51 -97 -121 -117
-155 -55 -94 -119 -115 -404 -135 l-165 -11 -263 87 c-145 48 -265 86 -267 84
-2 -2 108 -105 244 -230 l248 -226 284 52 c156 29 285 52 287 51 1 -1 18 -66
37 -145 36 -144 79 -253 112 -282 28 -24 83 -40 88 -25 2 7 15 98 29 202 39
282 38 280 53 115 22 -247 60 -402 149 -604 24 -55 42 -101 40 -103 -2 -2 -79
23 -172 56 l-169 61 -260 -84 c-143 -46 -270 -87 -283 -91 l-23 -7 7 192 c7
186 7 192 -12 186 -10 -3 -53 -13 -94 -21 -41 -9 -78 -19 -82 -23 -4 -4 -82
-218 -174 -477 -91 -258 -171 -482 -176 -497 l-9 -27 -77 34 c-357 154 -618
268 -621 272 -3 2 21 248 53 546 l58 542 125 212 c69 116 125 215 124 220 -2
14 -64 31 -114 32 -68 1 -117 -27 -166 -96 -119 -168 -177 -356 -192 -628 -5
-93 -10 -178 -12 -189 -1 -11 -56 77 -127 201 l-124 220 -76 -34 c-41 -19 -79
-38 -84 -43 -5 -5 30 -75 84 -167 103 -173 200 -358 200 -379 0 -8 -4 -14 -9
-14 -19 0 -203 174 -398 376 l-203 209 0 111 c0 61 -3 126 -6 143 l-6 31 -149
0 c-87 0 -149 -4 -149 -9 0 -13 217 -489 235 -517 7 -12 115 -103 240 -203
124 -101 224 -185 221 -189 -3 -3 -173 -82 -378 -177 l-373 -171 -41 -95 c-39
-88 -92 -240 -111 -318 l-8 -34 -63 77 -62 76 171 235 171 236 254 127 c140
70 254 130 254 133 0 4 -46 23 -102 42 -234 81 -202 58 -373 258 -245 286
-361 471 -471 750 l-65 166 -212 -61 -211 -61 -208 -588 -209 -588 96 -295
c52 -163 98 -301 102 -309 20 -34 384 -433 465 -510 106 -100 145 -128 215
-155 l50 -19 49 229 c26 126 49 228 51 227 1 -2 -1 -131 -6 -288 -5 -156 -7
-287 -5 -290 1 -3 22 -12 45 -19 74 -25 109 -109 109 -267 l0 -73 -137 -218
c-196 -312 -352 -547 -411 -620 l-50 -62 -279 247 -279 248 -378 89 -378 89
-282 -88 c-154 -48 -296 -93 -314 -101 -17 -7 -171 -140 -342 -295 l-309 -281
-52 -162 c-28 -88 -131 -414 -229 -723 l-178 -562 24 -553 23 -553 95 -350
c52 -192 129 -479 171 -637 l76 -288 365 -522 c201 -288 375 -533 387 -545 12
-12 198 -133 412 -271 l390 -249 325 -52 325 -51 445 204 445 205 90 144 c179
285 256 379 370 455 44 29 85 50 92 48 16 -7 602 -369 818 -507 l171 -108 203
59 c112 33 206 61 208 63 2 2 -1 56 -7 119 -14 159 5 290 56 389 26 52 75 259
105 451 l31 197 -162 336 -162 337 24 26 c84 94 779 824 948 995 214 218 442
432 532 500 45 33 197 117 213 117 12 0 3 -31 -27 -90 -24 -50 -66 -98 -187
-220 -86 -87 -198 -195 -249 -241 l-93 -84 -278 -800 c-192 -552 -277 -809
-275 -830 3 -16 40 -360 85 -763 l80 -733 188 -499 188 -500 148 -197 c434
-579 678 -817 1070 -1042 177 -102 397 -150 853 -186 l194 -16 356 207 c196
114 367 217 379 228 11 12 137 203 279 426 l257 405 99 588 98 587 -54 418
c-31 229 -74 560 -97 736 l-42 318 -322 652 -322 651 -357 350 -357 350 -192
75 c-106 42 -323 127 -483 189 l-291 113 -97 197 c-104 211 -161 369 -225 622
-40 154 -145 684 -139 699 2 5 38 36 82 70 64 51 80 60 90 49 17 -19 120 -144
121 -146 0 -1 93 44 205 100 181 90 312 143 403 162 39 8 73 -29 160 -176 70
-117 502 -978 494 -985 -2 -2 -48 12 -101 31 -53 19 -101 35 -107 35 -6 0 -9
-43 -7 -112 l3 -112 343 -148 344 -147 245 84 c135 47 247 86 248 87 2 2 -32
202 -75 445 l-78 441 -302 299 -301 298 -84 270 c-113 363 -166 505 -248 664
-104 204 -179 451 -234 760 -21 120 -26 183 -28 356 -2 235 -11 280 -71 390
-20 36 -38 65 -41 65 -4 0 -3 -79 0 -175 l6 -175 -257 -129 -258 -129 -124
135 c-69 74 -126 138 -128 143 -2 4 70 64 159 133 l162 126 109 -39 c74 -26
111 -35 113 -27 85 244 146 411 150 415 3 3 132 58 287 122 l281 116 53 152
53 152 -122 359 -122 359 -207 214 -206 214 -346 122 c-190 67 -347 122 -348
122 -2 -1 -111 -56 -242 -123z m424 -132 c96 -31 180 -62 187 -69 7 -6 107
-183 223 -394 l210 -383 -62 -72 c-34 -40 -64 -73 -68 -75 -3 -1 -43 111 -88
251 l-81 253 -212 224 c-116 124 -234 249 -263 279 -28 30 -44 52 -36 49 8 -3
94 -31 190 -63z m-268 -262 c24 -27 62 -73 85 -103 45 -59 263 -403 259 -407
-1 -2 -63 18 -138 43 l-135 45 -61 142 c-69 162 -92 234 -92 289 0 53 26 50
82 -9z m-352 -663 c17 -33 -4 -62 -43 -58 -25 2 -33 8 -35 26 -6 37 5 52 37
52 20 0 34 -7 41 -20z m4 -1312 l290 -103 123 -252 c68 -139 135 -281 149
-316 77 -186 170 -456 228 -662 47 -165 165 -699 156 -705 -5 -3 -146 -22
-315 -43 l-306 -38 -227 134 c-141 83 -229 130 -233 123 -3 -6 -14 -87 -23
-181 -9 -93 -19 -179 -21 -190 -3 -14 -63 -58 -185 -134 l-180 -113 -331 167
c-260 131 -333 164 -340 154 -33 -51 -18 -134 48 -272 33 -68 55 -103 73 -111
14 -7 159 -60 324 -117 l298 -104 88 -175 c96 -193 151 -326 170 -411 11 -49
10 -63 -5 -108 -19 -59 -17 -59 -120 -11 -106 50 -369 310 -556 549 -152 195
-311 442 -433 677 l-116 221 200 418 200 418 -98 158 c-53 88 -99 159 -102
159 -3 0 -29 -62 -59 -138 -55 -139 -78 -183 -68 -127 3 17 9 124 13 238 l6
208 165 297 c91 163 169 302 174 307 8 8 674 180 714 184 6 1 140 -45 299
-101z m-2351 -53 l37 -74 -98 34 c-53 20 -104 38 -112 41 -10 4 9 18 55 40 38
19 72 34 75 34 3 0 22 -34 43 -75z m92 -187 c-3 -13 -61 -347 -129 -743 l-123
-719 56 -219 56 -218 254 -270 c488 -520 725 -785 995 -1114 153 -186 155
-189 138 -210 -96 -108 -162 -187 -162 -193 0 -5 30 -19 68 -32 165 -57 276
-129 360 -235 l53 -65 -507 -513 c-279 -281 -566 -571 -638 -643 l-131 -132
-83 31 c-45 16 -80 32 -78 34 3 3 64 33 137 67 l132 61 28 80 c15 44 153 439
308 878 155 440 281 804 281 810 0 7 -252 291 -560 632 l-559 620 -120 298
-119 298 58 352 c94 566 157 854 229 1035 21 53 41 105 44 115 9 25 18 21 12
-5z m839 -1070 c14 -23 -3 -52 -33 -56 -42 -6 -67 38 -39 66 17 17 58 11 72
-10z m-115 -366 c-48 -56 -119 -132 -123 -132 -3 0 43 132 111 320 l28 75 8
-113 8 -113 -32 -37z m-1728 -203 c-56 -160 -119 -299 -298 -649 -85 -168
-157 -307 -159 -309 -3 -4 -161 46 -172 54 -1 1 54 112 124 246 215 418 338
608 462 717 41 35 76 62 78 59 2 -2 -13 -55 -35 -118z m319 84 c41 -14 79 -29
83 -33 11 -10 -28 -108 -54 -136 -11 -12 -28 -20 -35 -17 -20 7 -48 66 -63
128 -7 28 -14 58 -17 68 -7 22 -2 22 86 -10z m-2050 -409 c236 -84 527 -266
781 -489 l47 -40 -31 -60 c-126 -252 -993 -1680 -1279 -2107 -43 -65 -78 -121
-78 -125 0 -4 153 -62 340 -127 l340 -119 0 -31 c-1 -17 -9 -121 -19 -231
l-18 -200 -121 -179 c-67 -99 -122 -182 -122 -186 0 -3 18 -25 41 -49 54 -56
382 -218 1019 -502 261 -116 519 -233 573 -260 l97 -49 -21 -43 c-36 -69 -152
-236 -237 -337 -105 -126 -226 -240 -365 -343 l-113 -84 -350 -32 -350 -33
-140 56 c-144 58 -304 142 -434 229 -84 56 -357 324 -491 481 -46 55 -161 196
-255 314 l-171 214 -196 572 -195 571 -36 580 c-20 319 -36 601 -36 626 0 29
32 155 84 330 46 156 130 439 186 629 55 190 108 366 116 393 15 44 37 65 284
282 l269 235 353 88 c276 69 358 87 378 80 14 -6 81 -30 150 -54z m1815 -268
l38 -206 -113 -253 c-62 -138 -126 -281 -142 -316 l-28 -63 -18 23 c-10 13
-56 79 -103 147 l-83 123 199 399 c163 326 201 396 206 376 4 -14 24 -117 44
-230z m5218 -167 c112 -74 277 -307 302 -426 6 -28 2 -38 -23 -63 -17 -16 -37
-30 -44 -30 -14 0 -255 150 -316 197 l-34 25 4 132 c3 100 8 139 21 164 10 17
23 32 31 32 7 0 33 -14 59 -31z m-4201 -414 c68 -93 128 -176 132 -183 4 -7
-95 -209 -253 -512 l-261 -500 0 -110 c0 -113 -14 -210 -31 -210 -16 0 -89
164 -184 410 l-87 225 27 180 c15 99 32 191 37 204 12 33 479 672 489 669 4
-2 63 -79 131 -173z m-1768 33 l64 -78 -301 -662 -302 -663 -200 -152 c-166
-126 -201 -157 -203 -180 -11 -93 -63 -378 -71 -386 -9 -9 -99 105 -207 263
l-46 67 263 424 c653 1055 909 1454 930 1447 5 -2 37 -38 73 -80z m277 -425
c46 -75 85 -140 87 -144 2 -4 -72 -140 -164 -303 l-166 -296 143 -177 c79 -98
203 -251 276 -341 l132 -162 -29 -83 c-18 -55 -32 -81 -41 -79 -26 7 -1034
364 -1038 368 -6 6 47 109 661 1271 23 46 46 83 49 83 3 0 44 -62 90 -137z
m4019 -556 c0 -4 -46 -136 -55 -158 -6 -15 -12 -15 -67 7 -98 38 -120 68 -72
98 32 22 194 65 194 53z m88 -409 c6 -24 65 -275 132 -558 237 -1009 301
-1234 479 -1702 69 -181 92 -278 100 -422 l6 -128 50 -19 c85 -32 145 -21 145
28 0 40 -36 152 -89 276 -129 301 -256 786 -515 1964 -63 285 -117 533 -121
551 -8 39 -29 38 255 8 l215 -22 294 -212 294 -212 321 -418 320 -417 219
-655 219 -655 23 -560 23 -560 -201 -600 -200 -600 -281 -288 -281 -288 -390
-63 -390 -64 -135 51 c-239 90 -486 233 -631 364 -206 187 -441 475 -777 951
-41 57 -197 564 -255 827 -77 346 -109 550 -166 1045 l-39 335 190 660 c145
505 196 668 216 695 194 259 399 480 445 480 19 0 26 -9 39 -52 53 -174 111
-540 227 -1433 l69 -530 173 -393 c95 -215 176 -389 180 -385 3 5 23 58 44
118 l38 110 -168 320 -168 320 -87 960 c-49 528 -90 991 -91 1029 l-4 68 125
59 c69 32 128 58 131 58 4 1 11 -18 17 -41z m-4566 -469 c190 -66 415 -171
578 -268 115 -70 459 -311 460 -324 0 -20 -74 -217 -82 -217 -19 0 -236 102
-340 160 -60 34 -232 141 -381 239 -457 298 -478 313 -472 330 4 9 16 44 28
79 12 34 25 62 29 62 3 0 84 -27 180 -61z m340 -674 c311 -209 564 -381 563
-383 -1 -1 -58 18 -126 44 -423 158 -1064 517 -1121 627 -11 22 -18 40 -16 42
9 9 115 53 124 52 6 -1 265 -173 576 -382z m1055 -1 l32 -137 -71 -100 c-83
-116 -146 -183 -159 -170 -15 15 13 134 66 285 26 73 56 161 68 196 12 34 24
62 27 62 3 0 19 -61 37 -136z m-1684 -15 c295 -148 1183 -611 1214 -634 2 -1
-152 -604 -162 -633 -3 -9 -39 5 -117 44 -109 55 -799 377 -1157 540 l-174 79
-53 114 c-30 62 -54 117 -54 122 0 5 31 57 68 116 38 60 104 163 146 231 43
67 79 122 82 122 2 0 95 -46 207 -101z m2188 -77 l47 -15 -15 -43 c-9 -27 -36
-64 -70 -98 -55 -56 -290 -222 -299 -213 -5 5 52 426 61 454 2 8 41 -2 117
-29 62 -22 134 -47 159 -56z m458 -488 c67 -119 121 -218 121 -220 0 -6 -75
-24 -151 -35 -93 -13 -177 -2 -314 42 -63 20 -95 35 -95 45 0 31 51 137 90
187 36 46 204 195 222 197 3 0 61 -97 127 -216z m-1104 -266 l-36 -283 81
-189 c44 -104 78 -191 77 -193 -2 -1 -81 25 -177 59 l-173 62 6 170 c7 196 24
314 66 484 45 176 38 165 117 182 55 12 70 13 72 3 2 -7 -13 -140 -33 -295z
m1077 -155 l157 -55 -39 -107 c-82 -229 -114 -296 -140 -296 -30 0 -155 272
-182 398 -13 64 4 132 30 122 9 -3 88 -31 174 -62z"/>
<path d="M6850 12399 c-141 -10 -517 -74 -540 -92 -8 -7 -135 -119 -282 -250
l-268 -239 21 -41 c26 -51 55 -84 91 -103 25 -13 32 -12 65 5 61 31 177 153
338 358 12 15 461 124 630 153 186 32 368 50 614 60 271 11 319 21 343 69 10
19 16 36 14 38 -2 2 -104 12 -227 23 -264 24 -623 32 -799 19z"/>
<path d="M215 3874 c401 -205 787 -373 1370 -598 209 -80 385 -146 390 -146 9
0 68 150 61 157 -1 2 -203 71 -447 154 -984 334 -1525 518 -1544 524 -11 3 66
-38 170 -91z"/>
<path d="M1331 3755 c-40 -107 -49 -93 106 -159 398 -171 1063 -436 1568 -626
99 -37 198 -75 220 -84 124 -52 -66 46 -825 427 -709 356 -1005 497 -1042 497
-4 0 -16 -25 -27 -55z"/>
<path d="M7706 1241 c5 -5 61 -42 124 -81 249 -155 537 -277 1237 -524 150
-53 276 -96 280 -96 4 1 -28 19 -72 42 -44 22 -351 182 -683 354 l-603 314
-146 0 c-90 0 -143 -4 -137 -9z"/>
</g>
</svg>
